<?xml version="1.0" encoding="utf-8"?>
<!-- Generator: Adobe Illustrator 21.0.0, SVG Export Plug-In . SVG Version: 6.00 Build 0)  -->
<svg version="1.1" id="Layer_1" xmlns="http://www.w3.org/2000/svg" xmlns:xlink="http://www.w3.org/1999/xlink" x="0px" y="0px"
	 viewBox="0 0 51 51" style="enable-background:new 0 0 51 51;" xml:space="preserve">
<style type="text/css">
	.st0{fill:#C7B299;}
</style>
<path class="st0" d="M48.7,18.5c-0.6-0.6-1.6-0.6-2.2,0L32.6,32.3l-19.5,8.6l-3-3l8.6-19.5L32.5,4.6c0.6-0.6,0.6-1.6,0-2.2
	c-0.6-0.6-1.6-0.6-2.2,0L16,16.6L1.5,49.5L34.4,35l14.3-14.3C49.3,20.1,49.3,19.1,48.7,18.5z M28.5,29.5c0.3,0.3,0.7,0.5,1.1,0.5
	c0.4,0,0.8-0.2,1.1-0.5l13.3-13.3c0.6-0.6,0.6-1.6,0-2.2c-0.6-0.6-1.6-0.6-2.2,0L28.5,27.2C27.9,27.8,27.9,28.8,28.5,29.5z M25,26
	c0.3,0.3,0.7,0.5,1.1,0.5c0.4,0,0.8-0.2,1.1-0.5l13.3-13.3c0.6-0.6,0.6-1.6,0-2.2c-0.6-0.6-1.6-0.6-2.2,0L25,23.7
	C24.4,24.4,24.4,25.4,25,26z M21.5,22.5c0.3,0.3,0.7,0.5,1.1,0.5c0.4,0,0.8-0.2,1.1-0.5L37.1,9.2c0.6-0.6,0.6-1.6,0-2.3
	c-0.6-0.6-1.6-0.6-2.2,0L21.5,20.3C20.9,20.9,20.9,21.9,21.5,22.5z"/>
</svg>
