<?xml version="1.0" encoding="utf-8"?>
<!-- Generator: Adobe Illustrator 21.0.0, SVG Export Plug-In . SVG Version: 6.00 Build 0)  -->
<svg version="1.1" id="Layer_1" xmlns="http://www.w3.org/2000/svg" xmlns:xlink="http://www.w3.org/1999/xlink" x="0px" y="0px"
	 viewBox="0 0 55 38" style="enable-background:new 0 0 55 38;" xml:space="preserve">
<style type="text/css">
	.st0{fill:#C7B299;}
</style>
<path class="st0" d="M10,14.2c1-2.1,3.5-3.6,5.7-3.6h26.2V9c0-1.4-1.1-2.5-2.5-2.5H28.7V5.1C28.7,3,27,1.3,25,1.3h-6.3
	c-1,0-1.9,0.4-2.6,1.1C15.4,3.1,15,4.1,15,5.1v1.4H4.2C2.8,6.5,1.7,7.6,1.7,9v22.2L10,14.2z M17.5,5.1c0-0.3,0.1-0.6,0.4-0.9
	c0.2-0.2,0.5-0.4,0.9-0.4H25c0.7,0,1.2,0.6,1.2,1.2v1.4h-8.7V5.1z M42.9,34.8C42.3,36,40.7,37,39.4,37H4.1c-1.4,0-2-1-1.4-2.2
	l9.5-19.4c0.6-1.2,2.2-2.2,3.5-2.2H51c1.4,0,2,1,1.4,2.2L42.9,34.8z"/>
</svg>
