<?xml version="1.0" encoding="utf-8"?>
<!-- Generator: Adobe Illustrator 21.0.0, SVG Export Plug-In . SVG Version: 6.00 Build 0)  -->
<svg version="1.1" id="Layer_1" xmlns="http://www.w3.org/2000/svg" xmlns:xlink="http://www.w3.org/1999/xlink" x="0px" y="0px"
	 viewBox="0 0 46 46" style="enable-background:new 0 0 46 46;" xml:space="preserve">
<style type="text/css">
	.st0{fill:#C7B299;}
</style>
<path class="st0" d="M44.9,22.8c0-1.6-1.2-3.3-2.6-3.9c-1.4-0.5-2.8-1.8-3.2-2.7c-0.4-1-0.3-2.9,0.4-4.2c0.7-1.4,0.3-3.4-0.9-4.6
	c-1.1-1.1-3.2-1.5-4.6-0.9c-1.4,0.7-3.2,0.8-4.2,0.4c-1-0.4-2.2-1.8-2.7-3.2c-0.5-1.4-2.2-2.6-3.9-2.6c-1.6,0-3.3,1.2-3.9,2.6
	c-0.5,1.4-1.8,2.8-2.7,3.2c-1,0.4-2.9,0.3-4.2-0.4c-1.4-0.7-3.4-0.3-4.6,0.9C6.6,8.6,6.2,10.6,6.9,12c0.7,1.4,0.8,3.2,0.4,4.2
	c-0.4,1-1.8,2.2-3.2,2.7c-1.4,0.5-2.6,2.2-2.6,3.9c0,1.6,1.2,3.3,2.6,3.9c1.4,0.5,2.8,1.8,3.2,2.7c0.4,1,0.3,2.9-0.4,4.2
	c-0.7,1.4-0.3,3.4,0.9,4.6c1.1,1.1,3.2,1.5,4.6,0.9c1.4-0.7,3.2-0.8,4.2-0.4c1,0.4,2.2,1.8,2.7,3.2c0.5,1.4,2.2,2.6,3.9,2.6
	c1.6,0,3.3-1.2,3.9-2.6c0.5-1.4,1.8-2.8,2.7-3.2c1-0.4,2.9-0.3,4.2,0.4c1.4,0.7,3.4,0.3,4.6-0.9c1.1-1.1,1.5-3.2,0.9-4.6
	c-0.7-1.4-0.8-3.3-0.4-4.2c0.4-1,1.8-2.2,3.2-2.7C43.8,26.2,44.9,24.5,44.9,22.8z M23.1,30.8c-4.4,0-8-3.6-8-8c0-4.4,3.6-8,8-8
	c4.4,0,8,3.6,8,8C31.1,27.3,27.6,30.8,23.1,30.8z"/>
</svg>
